<mxfile host="app.diagrams.net" agent="Mozilla/5.0 (Windows NT 10.0; Win64; x64) AppleWebKit/537.36 (KHTML, like Gecko) Chrome/134.0.0.0 Safari/537.36 Edg/134.0.0.0" version="26.1.3">
  <diagram id="ZHCJmgzNfjlN0dUo_Ncb" name="Page-1">
    <mxGraphModel dx="9507" dy="5487" grid="1" gridSize="10" guides="1" tooltips="1" connect="1" arrows="1" fold="1" page="1" pageScale="1" pageWidth="850" pageHeight="1100" math="0" shadow="0">
      <root>
        <mxCell id="0" />
        <mxCell id="1" parent="0" />
        <mxCell id="3EHcgW4SZO7mCVpg3CIv-1" value="Start&amp;nbsp;&lt;br&gt;(Text the chatbot)" style="strokeWidth=2;html=1;shape=mxgraph.flowchart.start_1;whiteSpace=wrap;" vertex="1" parent="1">
          <mxGeometry x="80" y="460" width="210" height="90" as="geometry" />
        </mxCell>
        <mxCell id="3EHcgW4SZO7mCVpg3CIv-9" value="" style="edgeStyle=orthogonalEdgeStyle;rounded=0;orthogonalLoop=1;jettySize=auto;html=1;" edge="1" parent="1" source="3EHcgW4SZO7mCVpg3CIv-2" target="3EHcgW4SZO7mCVpg3CIv-8">
          <mxGeometry relative="1" as="geometry" />
        </mxCell>
        <mxCell id="3EHcgW4SZO7mCVpg3CIv-11" value="" style="edgeStyle=orthogonalEdgeStyle;rounded=0;orthogonalLoop=1;jettySize=auto;html=1;" edge="1" parent="1" source="3EHcgW4SZO7mCVpg3CIv-2" target="3EHcgW4SZO7mCVpg3CIv-10">
          <mxGeometry relative="1" as="geometry" />
        </mxCell>
        <mxCell id="3EHcgW4SZO7mCVpg3CIv-2" value="IsReturningUser?" style="strokeWidth=2;html=1;shape=mxgraph.flowchart.decision;whiteSpace=wrap;" vertex="1" parent="1">
          <mxGeometry x="441" y="425" width="150" height="160" as="geometry" />
        </mxCell>
        <mxCell id="3EHcgW4SZO7mCVpg3CIv-3" style="edgeStyle=orthogonalEdgeStyle;rounded=0;orthogonalLoop=1;jettySize=auto;html=1;entryX=0;entryY=0.5;entryDx=0;entryDy=0;entryPerimeter=0;" edge="1" parent="1" source="3EHcgW4SZO7mCVpg3CIv-1" target="3EHcgW4SZO7mCVpg3CIv-2">
          <mxGeometry relative="1" as="geometry" />
        </mxCell>
        <mxCell id="3EHcgW4SZO7mCVpg3CIv-18" style="edgeStyle=orthogonalEdgeStyle;rounded=0;orthogonalLoop=1;jettySize=auto;html=1;" edge="1" parent="1" source="3EHcgW4SZO7mCVpg3CIv-8" target="3EHcgW4SZO7mCVpg3CIv-14">
          <mxGeometry relative="1" as="geometry" />
        </mxCell>
        <mxCell id="3EHcgW4SZO7mCVpg3CIv-8" value="Initialize new profile&lt;div&gt;&lt;br/&gt;&lt;/div&gt;" style="whiteSpace=wrap;html=1;strokeWidth=2;" vertex="1" parent="1">
          <mxGeometry x="850" y="570" width="190" height="60" as="geometry" />
        </mxCell>
        <mxCell id="3EHcgW4SZO7mCVpg3CIv-43" style="edgeStyle=orthogonalEdgeStyle;rounded=0;orthogonalLoop=1;jettySize=auto;html=1;" edge="1" parent="1" source="3EHcgW4SZO7mCVpg3CIv-10" target="3EHcgW4SZO7mCVpg3CIv-42">
          <mxGeometry relative="1" as="geometry" />
        </mxCell>
        <mxCell id="3EHcgW4SZO7mCVpg3CIv-10" value="Load Saved Profile" style="whiteSpace=wrap;html=1;strokeWidth=2;" vertex="1" parent="1">
          <mxGeometry x="850" y="407" width="190" height="60" as="geometry" />
        </mxCell>
        <mxCell id="3EHcgW4SZO7mCVpg3CIv-12" value="True" style="text;html=1;align=center;verticalAlign=middle;whiteSpace=wrap;rounded=0;" vertex="1" parent="1">
          <mxGeometry x="780" y="440" width="60" height="30" as="geometry" />
        </mxCell>
        <mxCell id="3EHcgW4SZO7mCVpg3CIv-13" value="False" style="text;html=1;align=center;verticalAlign=middle;whiteSpace=wrap;rounded=0;" vertex="1" parent="1">
          <mxGeometry x="2160" y="560" width="60" height="30" as="geometry" />
        </mxCell>
        <mxCell id="3EHcgW4SZO7mCVpg3CIv-20" value="" style="edgeStyle=orthogonalEdgeStyle;rounded=0;orthogonalLoop=1;jettySize=auto;html=1;" edge="1" parent="1" source="3EHcgW4SZO7mCVpg3CIv-14" target="3EHcgW4SZO7mCVpg3CIv-19">
          <mxGeometry relative="1" as="geometry" />
        </mxCell>
        <mxCell id="3EHcgW4SZO7mCVpg3CIv-14" value="New Person Object ,&lt;br&gt;What is your Name?&lt;br&gt;What is Your Age?" style="shape=parallelogram;perimeter=parallelogramPerimeter;whiteSpace=wrap;html=1;fixedSize=1;" vertex="1" parent="1">
          <mxGeometry x="850" y="770" width="190" height="80" as="geometry" />
        </mxCell>
        <mxCell id="3EHcgW4SZO7mCVpg3CIv-32" style="edgeStyle=orthogonalEdgeStyle;rounded=0;orthogonalLoop=1;jettySize=auto;html=1;entryX=0.5;entryY=0;entryDx=0;entryDy=0;" edge="1" parent="1" source="3EHcgW4SZO7mCVpg3CIv-19" target="3EHcgW4SZO7mCVpg3CIv-31">
          <mxGeometry relative="1" as="geometry" />
        </mxCell>
        <mxCell id="3EHcgW4SZO7mCVpg3CIv-47" style="edgeStyle=orthogonalEdgeStyle;rounded=0;orthogonalLoop=1;jettySize=auto;html=1;" edge="1" parent="1" source="3EHcgW4SZO7mCVpg3CIv-19">
          <mxGeometry relative="1" as="geometry">
            <mxPoint x="1620" y="985" as="targetPoint" />
          </mxGeometry>
        </mxCell>
        <mxCell id="3EHcgW4SZO7mCVpg3CIv-19" value="userAge &amp;lt; 18?" style="rhombus;whiteSpace=wrap;html=1;" vertex="1" parent="1">
          <mxGeometry x="880" y="930" width="130" height="110" as="geometry" />
        </mxCell>
        <mxCell id="3EHcgW4SZO7mCVpg3CIv-22" value="Deactivate Profile" style="whiteSpace=wrap;html=1;" vertex="1" parent="1">
          <mxGeometry x="774" y="1334" width="150" height="60" as="geometry" />
        </mxCell>
        <mxCell id="3EHcgW4SZO7mCVpg3CIv-24" value="Store User&amp;nbsp;" style="whiteSpace=wrap;html=1;" vertex="1" parent="1">
          <mxGeometry x="990" y="1334" width="140" height="60" as="geometry" />
        </mxCell>
        <mxCell id="3EHcgW4SZO7mCVpg3CIv-26" value="True" style="text;html=1;align=center;verticalAlign=middle;whiteSpace=wrap;rounded=0;" vertex="1" parent="1">
          <mxGeometry x="930" y="1040" width="60" height="30" as="geometry" />
        </mxCell>
        <mxCell id="3EHcgW4SZO7mCVpg3CIv-36" style="edgeStyle=orthogonalEdgeStyle;rounded=0;orthogonalLoop=1;jettySize=auto;html=1;entryX=0.5;entryY=0;entryDx=0;entryDy=0;" edge="1" parent="1" source="3EHcgW4SZO7mCVpg3CIv-31" target="3EHcgW4SZO7mCVpg3CIv-22">
          <mxGeometry relative="1" as="geometry" />
        </mxCell>
        <mxCell id="3EHcgW4SZO7mCVpg3CIv-37" style="edgeStyle=orthogonalEdgeStyle;rounded=0;orthogonalLoop=1;jettySize=auto;html=1;entryX=0.5;entryY=0;entryDx=0;entryDy=0;" edge="1" parent="1" source="3EHcgW4SZO7mCVpg3CIv-31" target="3EHcgW4SZO7mCVpg3CIv-24">
          <mxGeometry relative="1" as="geometry" />
        </mxCell>
        <mxCell id="3EHcgW4SZO7mCVpg3CIv-31" value="guardianConsent?" style="rhombus;whiteSpace=wrap;html=1;" vertex="1" parent="1">
          <mxGeometry x="880" y="1120" width="130" height="110" as="geometry" />
        </mxCell>
        <mxCell id="3EHcgW4SZO7mCVpg3CIv-34" value="End" style="strokeWidth=2;html=1;shape=mxgraph.flowchart.start_1;whiteSpace=wrap;" vertex="1" parent="1">
          <mxGeometry x="800" y="1470" width="100" height="60" as="geometry" />
        </mxCell>
        <mxCell id="3EHcgW4SZO7mCVpg3CIv-35" style="edgeStyle=orthogonalEdgeStyle;rounded=0;orthogonalLoop=1;jettySize=auto;html=1;entryX=0.5;entryY=0;entryDx=0;entryDy=0;entryPerimeter=0;" edge="1" parent="1" source="3EHcgW4SZO7mCVpg3CIv-22" target="3EHcgW4SZO7mCVpg3CIv-34">
          <mxGeometry relative="1" as="geometry" />
        </mxCell>
        <mxCell id="3EHcgW4SZO7mCVpg3CIv-45" style="edgeStyle=orthogonalEdgeStyle;rounded=0;orthogonalLoop=1;jettySize=auto;html=1;" edge="1" parent="1" source="3EHcgW4SZO7mCVpg3CIv-42" target="3EHcgW4SZO7mCVpg3CIv-44">
          <mxGeometry relative="1" as="geometry" />
        </mxCell>
        <mxCell id="3EHcgW4SZO7mCVpg3CIv-42" value="Skip to filled answer already&amp;nbsp;&lt;div&gt;Completed.&lt;/div&gt;" style="shape=parallelogram;perimeter=parallelogramPerimeter;whiteSpace=wrap;html=1;fixedSize=1;" vertex="1" parent="1">
          <mxGeometry x="1190" y="450" width="200" height="100" as="geometry" />
        </mxCell>
        <mxCell id="3EHcgW4SZO7mCVpg3CIv-50" value="" style="edgeStyle=orthogonalEdgeStyle;rounded=0;orthogonalLoop=1;jettySize=auto;html=1;" edge="1" parent="1" source="3EHcgW4SZO7mCVpg3CIv-44" target="3EHcgW4SZO7mCVpg3CIv-49">
          <mxGeometry relative="1" as="geometry" />
        </mxCell>
        <mxCell id="3EHcgW4SZO7mCVpg3CIv-44" value="Ask 3 lifestyle Qs:&lt;div&gt;&lt;br&gt;&quot;Do you live alone ?&quot; -&amp;gt; livesAlone&lt;/div&gt;&lt;div&gt;&lt;br&gt;&lt;div&gt;&quot;Are you vegetarian ?&quot; -&amp;gt; isVegetarian&lt;/div&gt;&lt;div&gt;&lt;br&gt;&lt;/div&gt;&lt;div&gt;&quot;Are you religious ?&quot; -&amp;gt; isReligious&lt;/div&gt;&lt;/div&gt;" style="shape=parallelogram;perimeter=parallelogramPerimeter;whiteSpace=wrap;html=1;fixedSize=1;" vertex="1" parent="1">
          <mxGeometry x="1490" y="440" width="280" height="120" as="geometry" />
        </mxCell>
        <mxCell id="3EHcgW4SZO7mCVpg3CIv-46" style="edgeStyle=orthogonalEdgeStyle;rounded=0;orthogonalLoop=1;jettySize=auto;html=1;entryX=0.446;entryY=1.025;entryDx=0;entryDy=0;entryPerimeter=0;" edge="1" parent="1" source="3EHcgW4SZO7mCVpg3CIv-24" target="3EHcgW4SZO7mCVpg3CIv-44">
          <mxGeometry relative="1" as="geometry" />
        </mxCell>
        <mxCell id="3EHcgW4SZO7mCVpg3CIv-48" value="False" style="text;html=1;align=center;verticalAlign=middle;whiteSpace=wrap;rounded=0;" vertex="1" parent="1">
          <mxGeometry x="1010" y="960" width="60" height="30" as="geometry" />
        </mxCell>
        <mxCell id="3EHcgW4SZO7mCVpg3CIv-54" style="edgeStyle=orthogonalEdgeStyle;rounded=0;orthogonalLoop=1;jettySize=auto;html=1;entryX=0;entryY=0.5;entryDx=0;entryDy=0;" edge="1" parent="1" source="3EHcgW4SZO7mCVpg3CIv-49" target="3EHcgW4SZO7mCVpg3CIv-52">
          <mxGeometry relative="1" as="geometry" />
        </mxCell>
        <mxCell id="3EHcgW4SZO7mCVpg3CIv-55" style="edgeStyle=orthogonalEdgeStyle;rounded=0;orthogonalLoop=1;jettySize=auto;html=1;entryX=0;entryY=0.5;entryDx=0;entryDy=0;" edge="1" parent="1" source="3EHcgW4SZO7mCVpg3CIv-49" target="3EHcgW4SZO7mCVpg3CIv-53">
          <mxGeometry relative="1" as="geometry" />
        </mxCell>
        <mxCell id="3EHcgW4SZO7mCVpg3CIv-49" value="Subscribe to newsletter?" style="rhombus;whiteSpace=wrap;html=1;" vertex="1" parent="1">
          <mxGeometry x="1950" y="430" width="150" height="140" as="geometry" />
        </mxCell>
        <mxCell id="3EHcgW4SZO7mCVpg3CIv-60" style="edgeStyle=orthogonalEdgeStyle;rounded=0;orthogonalLoop=1;jettySize=auto;html=1;exitX=1;exitY=0.5;exitDx=0;exitDy=0;entryX=0.5;entryY=0;entryDx=0;entryDy=0;" edge="1" parent="1" source="3EHcgW4SZO7mCVpg3CIv-52" target="3EHcgW4SZO7mCVpg3CIv-57">
          <mxGeometry relative="1" as="geometry" />
        </mxCell>
        <mxCell id="3EHcgW4SZO7mCVpg3CIv-52" value=" newsletterSubscription= true" style="rounded=0;whiteSpace=wrap;html=1;" vertex="1" parent="1">
          <mxGeometry x="2222" y="425" width="148" height="60" as="geometry" />
        </mxCell>
        <mxCell id="3EHcgW4SZO7mCVpg3CIv-53" value=" newsletterSubscription&amp;nbsp;= false" style="rounded=0;whiteSpace=wrap;html=1;" vertex="1" parent="1">
          <mxGeometry x="2222" y="560" width="158" height="60" as="geometry" />
        </mxCell>
        <mxCell id="3EHcgW4SZO7mCVpg3CIv-56" value="True" style="text;html=1;align=center;verticalAlign=middle;whiteSpace=wrap;rounded=0;" vertex="1" parent="1">
          <mxGeometry x="2160" y="425" width="60" height="30" as="geometry" />
        </mxCell>
        <mxCell id="3EHcgW4SZO7mCVpg3CIv-63" value="" style="edgeStyle=orthogonalEdgeStyle;rounded=0;orthogonalLoop=1;jettySize=auto;html=1;" edge="1" parent="1" source="3EHcgW4SZO7mCVpg3CIv-57" target="3EHcgW4SZO7mCVpg3CIv-62">
          <mxGeometry relative="1" as="geometry" />
        </mxCell>
        <mxCell id="3EHcgW4SZO7mCVpg3CIv-57" value="Which language? (English, Spanish, French)&lt;br&gt;-&amp;gt; userLanguage" style="shape=parallelogram;perimeter=parallelogramPerimeter;whiteSpace=wrap;html=1;fixedSize=1;" vertex="1" parent="1">
          <mxGeometry x="2560" y="485" width="260" height="80" as="geometry" />
        </mxCell>
        <mxCell id="3EHcgW4SZO7mCVpg3CIv-61" style="edgeStyle=orthogonalEdgeStyle;rounded=0;orthogonalLoop=1;jettySize=auto;html=1;entryX=0.454;entryY=1;entryDx=0;entryDy=0;entryPerimeter=0;" edge="1" parent="1" source="3EHcgW4SZO7mCVpg3CIv-53" target="3EHcgW4SZO7mCVpg3CIv-57">
          <mxGeometry relative="1" as="geometry" />
        </mxCell>
        <mxCell id="3EHcgW4SZO7mCVpg3CIv-66" value="" style="edgeStyle=orthogonalEdgeStyle;rounded=0;orthogonalLoop=1;jettySize=auto;html=1;" edge="1" parent="1" source="3EHcgW4SZO7mCVpg3CIv-62" target="3EHcgW4SZO7mCVpg3CIv-65">
          <mxGeometry relative="1" as="geometry" />
        </mxCell>
        <mxCell id="3EHcgW4SZO7mCVpg3CIv-68" value="" style="edgeStyle=orthogonalEdgeStyle;rounded=0;orthogonalLoop=1;jettySize=auto;html=1;" edge="1" parent="1" source="3EHcgW4SZO7mCVpg3CIv-62" target="3EHcgW4SZO7mCVpg3CIv-67">
          <mxGeometry relative="1" as="geometry" />
        </mxCell>
        <mxCell id="3EHcgW4SZO7mCVpg3CIv-62" value="Valid language?&amp;nbsp;&lt;div&gt;If invalid&amp;nbsp;&lt;/div&gt;&lt;div&gt;default = English&lt;/div&gt;" style="rhombus;whiteSpace=wrap;html=1;" vertex="1" parent="1">
          <mxGeometry x="2990" y="440" width="150" height="170" as="geometry" />
        </mxCell>
        <mxCell id="3EHcgW4SZO7mCVpg3CIv-73" style="edgeStyle=orthogonalEdgeStyle;rounded=0;orthogonalLoop=1;jettySize=auto;html=1;entryX=0.5;entryY=0;entryDx=0;entryDy=0;" edge="1" parent="1" source="3EHcgW4SZO7mCVpg3CIv-65" target="3EHcgW4SZO7mCVpg3CIv-71">
          <mxGeometry relative="1" as="geometry" />
        </mxCell>
        <mxCell id="3EHcgW4SZO7mCVpg3CIv-65" value="userLanguage = (e.g, &quot;Spanish&quot;)" style="whiteSpace=wrap;html=1;" vertex="1" parent="1">
          <mxGeometry x="3290" y="420" width="150" height="60" as="geometry" />
        </mxCell>
        <mxCell id="3EHcgW4SZO7mCVpg3CIv-72" style="edgeStyle=orthogonalEdgeStyle;rounded=0;orthogonalLoop=1;jettySize=auto;html=1;entryX=0.5;entryY=1;entryDx=0;entryDy=0;" edge="1" parent="1" source="3EHcgW4SZO7mCVpg3CIv-67" target="3EHcgW4SZO7mCVpg3CIv-71">
          <mxGeometry relative="1" as="geometry" />
        </mxCell>
        <mxCell id="3EHcgW4SZO7mCVpg3CIv-67" value="userLanguage = &quot;English&quot;(default)" style="whiteSpace=wrap;html=1;" vertex="1" parent="1">
          <mxGeometry x="3290" y="560" width="150" height="60" as="geometry" />
        </mxCell>
        <mxCell id="3EHcgW4SZO7mCVpg3CIv-69" value="True" style="text;html=1;align=center;verticalAlign=middle;whiteSpace=wrap;rounded=0;" vertex="1" parent="1">
          <mxGeometry x="3230" y="420" width="60" height="30" as="geometry" />
        </mxCell>
        <mxCell id="3EHcgW4SZO7mCVpg3CIv-70" value="False" style="text;html=1;align=center;verticalAlign=middle;whiteSpace=wrap;rounded=0;" vertex="1" parent="1">
          <mxGeometry x="3230" y="565" width="60" height="30" as="geometry" />
        </mxCell>
        <mxCell id="3EHcgW4SZO7mCVpg3CIv-75" value="" style="edgeStyle=orthogonalEdgeStyle;rounded=0;orthogonalLoop=1;jettySize=auto;html=1;" edge="1" parent="1" source="3EHcgW4SZO7mCVpg3CIv-71" target="3EHcgW4SZO7mCVpg3CIv-74">
          <mxGeometry relative="1" as="geometry" />
        </mxCell>
        <mxCell id="3EHcgW4SZO7mCVpg3CIv-71" value="&quot;Which interest ? (Product A, Product B,&lt;div&gt;or Service X? ) -&amp;gt;&amp;nbsp; interests&lt;/div&gt;" style="shape=parallelogram;perimeter=parallelogramPerimeter;whiteSpace=wrap;html=1;fixedSize=1;" vertex="1" parent="1">
          <mxGeometry x="3720" y="470" width="260" height="90" as="geometry" />
        </mxCell>
        <mxCell id="3EHcgW4SZO7mCVpg3CIv-79" value="" style="edgeStyle=orthogonalEdgeStyle;rounded=0;orthogonalLoop=1;jettySize=auto;html=1;" edge="1" parent="1" source="3EHcgW4SZO7mCVpg3CIv-74" target="3EHcgW4SZO7mCVpg3CIv-78">
          <mxGeometry relative="1" as="geometry" />
        </mxCell>
        <mxCell id="3EHcgW4SZO7mCVpg3CIv-80" style="edgeStyle=orthogonalEdgeStyle;rounded=0;orthogonalLoop=1;jettySize=auto;html=1;entryX=0;entryY=0.5;entryDx=0;entryDy=0;" edge="1" parent="1" source="3EHcgW4SZO7mCVpg3CIv-74" target="3EHcgW4SZO7mCVpg3CIv-76">
          <mxGeometry relative="1" as="geometry" />
        </mxCell>
        <mxCell id="3EHcgW4SZO7mCVpg3CIv-74" value="If interstes =Service X?" style="rhombus;whiteSpace=wrap;html=1;" vertex="1" parent="1">
          <mxGeometry x="4170" y="450" width="150" height="130" as="geometry" />
        </mxCell>
        <mxCell id="3EHcgW4SZO7mCVpg3CIv-86" value="" style="edgeStyle=orthogonalEdgeStyle;rounded=0;orthogonalLoop=1;jettySize=auto;html=1;" edge="1" parent="1" source="3EHcgW4SZO7mCVpg3CIv-76" target="3EHcgW4SZO7mCVpg3CIv-85">
          <mxGeometry relative="1" as="geometry" />
        </mxCell>
        <mxCell id="3EHcgW4SZO7mCVpg3CIv-76" value="date/time preference ?&lt;div&gt;-&amp;gt; serviceDate&lt;/div&gt;" style="shape=parallelogram;perimeter=parallelogramPerimeter;whiteSpace=wrap;html=1;fixedSize=1;" vertex="1" parent="1">
          <mxGeometry x="4480" y="485" width="190" height="60" as="geometry" />
        </mxCell>
        <mxCell id="3EHcgW4SZO7mCVpg3CIv-87" style="edgeStyle=orthogonalEdgeStyle;rounded=0;orthogonalLoop=1;jettySize=auto;html=1;entryX=0;entryY=0.5;entryDx=0;entryDy=0;" edge="1" parent="1" source="3EHcgW4SZO7mCVpg3CIv-77" target="3EHcgW4SZO7mCVpg3CIv-85">
          <mxGeometry relative="1" as="geometry" />
        </mxCell>
        <mxCell id="3EHcgW4SZO7mCVpg3CIv-77" value="Shipping Address&lt;div&gt;and Speed?&lt;/div&gt;&lt;div&gt;shippingAddress&lt;/div&gt;&lt;div&gt;shippingSpeed&lt;/div&gt;" style="shape=parallelogram;perimeter=parallelogramPerimeter;whiteSpace=wrap;html=1;fixedSize=1;" vertex="1" parent="1">
          <mxGeometry x="4470" y="609" width="200" height="60" as="geometry" />
        </mxCell>
        <mxCell id="3EHcgW4SZO7mCVpg3CIv-81" style="edgeStyle=orthogonalEdgeStyle;rounded=0;orthogonalLoop=1;jettySize=auto;html=1;entryX=0.5;entryY=1;entryDx=0;entryDy=0;" edge="1" parent="1" source="3EHcgW4SZO7mCVpg3CIv-78" target="3EHcgW4SZO7mCVpg3CIv-77">
          <mxGeometry relative="1" as="geometry" />
        </mxCell>
        <mxCell id="3EHcgW4SZO7mCVpg3CIv-78" value="if interstes = product A&lt;div&gt;or product B?&lt;/div&gt;" style="rhombus;whiteSpace=wrap;html=1;" vertex="1" parent="1">
          <mxGeometry x="4160" y="660" width="170" height="110" as="geometry" />
        </mxCell>
        <mxCell id="3EHcgW4SZO7mCVpg3CIv-82" value="False" style="text;html=1;align=center;verticalAlign=middle;whiteSpace=wrap;rounded=0;" vertex="1" parent="1">
          <mxGeometry x="4250" y="585" width="60" height="30" as="geometry" />
        </mxCell>
        <mxCell id="3EHcgW4SZO7mCVpg3CIv-83" value="True" style="text;html=1;align=center;verticalAlign=middle;whiteSpace=wrap;rounded=0;" vertex="1" parent="1">
          <mxGeometry x="4310" y="485" width="60" height="30" as="geometry" />
        </mxCell>
        <mxCell id="3EHcgW4SZO7mCVpg3CIv-84" value="True" style="text;html=1;align=center;verticalAlign=middle;whiteSpace=wrap;rounded=0;" vertex="1" parent="1">
          <mxGeometry x="4330" y="690" width="60" height="30" as="geometry" />
        </mxCell>
        <mxCell id="3EHcgW4SZO7mCVpg3CIv-89" value="" style="edgeStyle=orthogonalEdgeStyle;rounded=0;orthogonalLoop=1;jettySize=auto;html=1;" edge="1" parent="1" source="3EHcgW4SZO7mCVpg3CIv-85" target="3EHcgW4SZO7mCVpg3CIv-88">
          <mxGeometry relative="1" as="geometry" />
        </mxCell>
        <mxCell id="3EHcgW4SZO7mCVpg3CIv-115" style="edgeStyle=orthogonalEdgeStyle;rounded=0;orthogonalLoop=1;jettySize=auto;html=1;entryX=0.706;entryY=1.022;entryDx=0;entryDy=0;entryPerimeter=0;" edge="1" parent="1" source="3EHcgW4SZO7mCVpg3CIv-85" target="3EHcgW4SZO7mCVpg3CIv-104">
          <mxGeometry relative="1" as="geometry">
            <mxPoint x="6730" y="880" as="targetPoint" />
            <Array as="points">
              <mxPoint x="4970" y="980" />
              <mxPoint x="6875" y="980" />
            </Array>
          </mxGeometry>
        </mxCell>
        <mxCell id="3EHcgW4SZO7mCVpg3CIv-85" value="&quot;Enable premium support?&quot;&lt;div&gt;(Yes/No)&lt;/div&gt;" style="rhombus;whiteSpace=wrap;html=1;" vertex="1" parent="1">
          <mxGeometry x="4870" y="510" width="200" height="140" as="geometry" />
        </mxCell>
        <mxCell id="3EHcgW4SZO7mCVpg3CIv-91" value="" style="edgeStyle=orthogonalEdgeStyle;rounded=0;orthogonalLoop=1;jettySize=auto;html=1;" edge="1" parent="1" source="3EHcgW4SZO7mCVpg3CIv-88" target="3EHcgW4SZO7mCVpg3CIv-90">
          <mxGeometry relative="1" as="geometry" />
        </mxCell>
        <mxCell id="3EHcgW4SZO7mCVpg3CIv-95" value="" style="edgeStyle=orthogonalEdgeStyle;rounded=0;orthogonalLoop=1;jettySize=auto;html=1;" edge="1" parent="1" source="3EHcgW4SZO7mCVpg3CIv-88" target="3EHcgW4SZO7mCVpg3CIv-94">
          <mxGeometry relative="1" as="geometry" />
        </mxCell>
        <mxCell id="3EHcgW4SZO7mCVpg3CIv-88" value="&quot;Do you have a promo code?&quot;&lt;div&gt;(Yes/No)&lt;/div&gt;" style="rhombus;whiteSpace=wrap;html=1;" vertex="1" parent="1">
          <mxGeometry x="5150" y="510" width="200" height="140" as="geometry" />
        </mxCell>
        <mxCell id="3EHcgW4SZO7mCVpg3CIv-97" value="" style="edgeStyle=orthogonalEdgeStyle;rounded=0;orthogonalLoop=1;jettySize=auto;html=1;" edge="1" parent="1" source="3EHcgW4SZO7mCVpg3CIv-90" target="3EHcgW4SZO7mCVpg3CIv-96">
          <mxGeometry relative="1" as="geometry" />
        </mxCell>
        <mxCell id="3EHcgW4SZO7mCVpg3CIv-90" value="Prompt for code&lt;div&gt;&amp;nbsp;promoCode&lt;/div&gt;" style="shape=parallelogram;perimeter=parallelogramPerimeter;whiteSpace=wrap;html=1;fixedSize=1;" vertex="1" parent="1">
          <mxGeometry x="5470" y="450" width="160" height="60" as="geometry" />
        </mxCell>
        <mxCell id="3EHcgW4SZO7mCVpg3CIv-106" style="edgeStyle=orthogonalEdgeStyle;rounded=0;orthogonalLoop=1;jettySize=auto;html=1;entryX=0.581;entryY=1.022;entryDx=0;entryDy=0;entryPerimeter=0;" edge="1" parent="1" source="3EHcgW4SZO7mCVpg3CIv-94" target="3EHcgW4SZO7mCVpg3CIv-104">
          <mxGeometry relative="1" as="geometry">
            <mxPoint x="6430" y="700" as="targetPoint" />
          </mxGeometry>
        </mxCell>
        <mxCell id="3EHcgW4SZO7mCVpg3CIv-94" value="No promo" style="whiteSpace=wrap;html=1;" vertex="1" parent="1">
          <mxGeometry x="5470" y="650" width="150" height="60" as="geometry" />
        </mxCell>
        <mxCell id="3EHcgW4SZO7mCVpg3CIv-99" value="" style="edgeStyle=orthogonalEdgeStyle;rounded=0;orthogonalLoop=1;jettySize=auto;html=1;" edge="1" parent="1" source="3EHcgW4SZO7mCVpg3CIv-96" target="3EHcgW4SZO7mCVpg3CIv-98">
          <mxGeometry relative="1" as="geometry" />
        </mxCell>
        <mxCell id="3EHcgW4SZO7mCVpg3CIv-103" style="edgeStyle=orthogonalEdgeStyle;rounded=0;orthogonalLoop=1;jettySize=auto;html=1;entryX=0;entryY=0.5;entryDx=0;entryDy=0;" edge="1" parent="1" source="3EHcgW4SZO7mCVpg3CIv-96" target="3EHcgW4SZO7mCVpg3CIv-101">
          <mxGeometry relative="1" as="geometry" />
        </mxCell>
        <mxCell id="3EHcgW4SZO7mCVpg3CIv-96" value="Validate promo code format&lt;div&gt;(3 uppercase,&lt;/div&gt;&lt;div&gt;4 digits,&lt;/div&gt;&lt;div&gt;2 special Charcters,&lt;/div&gt;&lt;div&gt;3 lowercase)?&lt;/div&gt;" style="rhombus;whiteSpace=wrap;html=1;" vertex="1" parent="1">
          <mxGeometry x="5750" y="370" width="250" height="220" as="geometry" />
        </mxCell>
        <mxCell id="3EHcgW4SZO7mCVpg3CIv-108" style="edgeStyle=orthogonalEdgeStyle;rounded=0;orthogonalLoop=1;jettySize=auto;html=1;entryX=0.5;entryY=0;entryDx=0;entryDy=0;" edge="1" parent="1" source="3EHcgW4SZO7mCVpg3CIv-98" target="3EHcgW4SZO7mCVpg3CIv-104">
          <mxGeometry relative="1" as="geometry" />
        </mxCell>
        <mxCell id="3EHcgW4SZO7mCVpg3CIv-98" value="promoCodeValid = True" style="whiteSpace=wrap;html=1;" vertex="1" parent="1">
          <mxGeometry x="6250" y="340" width="120" height="60" as="geometry" />
        </mxCell>
        <mxCell id="3EHcgW4SZO7mCVpg3CIv-107" style="edgeStyle=orthogonalEdgeStyle;rounded=0;orthogonalLoop=1;jettySize=auto;html=1;entryX=0.5;entryY=1;entryDx=0;entryDy=0;" edge="1" parent="1" source="3EHcgW4SZO7mCVpg3CIv-101" target="3EHcgW4SZO7mCVpg3CIv-104">
          <mxGeometry relative="1" as="geometry" />
        </mxCell>
        <mxCell id="3EHcgW4SZO7mCVpg3CIv-101" value="Re-ask code or allow&amp;nbsp;&lt;br&gt;&quot;Skip&quot;" style="shape=parallelogram;perimeter=parallelogramPerimeter;whiteSpace=wrap;html=1;fixedSize=1;" vertex="1" parent="1">
          <mxGeometry x="6248" y="512" width="150" height="60" as="geometry" />
        </mxCell>
        <mxCell id="3EHcgW4SZO7mCVpg3CIv-110" value="" style="edgeStyle=orthogonalEdgeStyle;rounded=0;orthogonalLoop=1;jettySize=auto;html=1;" edge="1" parent="1" source="3EHcgW4SZO7mCVpg3CIv-104" target="3EHcgW4SZO7mCVpg3CIv-109">
          <mxGeometry relative="1" as="geometry" />
        </mxCell>
        <mxCell id="3EHcgW4SZO7mCVpg3CIv-104" value="Summarize all data to user: name, age, guardianConsent,&lt;div&gt;lifestyle Qs, newsletter, language, product/service details,&lt;/div&gt;&lt;div&gt;premiumSupport, promoCode, etc.&lt;/div&gt;" style="shape=parallelogram;perimeter=parallelogramPerimeter;whiteSpace=wrap;html=1;fixedSize=1;" vertex="1" parent="1">
          <mxGeometry x="6621" y="390" width="360" height="100" as="geometry" />
        </mxCell>
        <mxCell id="3EHcgW4SZO7mCVpg3CIv-112" value="" style="edgeStyle=orthogonalEdgeStyle;rounded=0;orthogonalLoop=1;jettySize=auto;html=1;" edge="1" parent="1" source="3EHcgW4SZO7mCVpg3CIv-109" target="3EHcgW4SZO7mCVpg3CIv-111">
          <mxGeometry relative="1" as="geometry" />
        </mxCell>
        <mxCell id="3EHcgW4SZO7mCVpg3CIv-122" value="" style="edgeStyle=orthogonalEdgeStyle;rounded=0;orthogonalLoop=1;jettySize=auto;html=1;" edge="1" parent="1" source="3EHcgW4SZO7mCVpg3CIv-109" target="3EHcgW4SZO7mCVpg3CIv-121">
          <mxGeometry relative="1" as="geometry" />
        </mxCell>
        <mxCell id="3EHcgW4SZO7mCVpg3CIv-109" value="&quot;Confirm details?&quot;&lt;br&gt;(Yes/No)" style="rhombus;whiteSpace=wrap;html=1;" vertex="1" parent="1">
          <mxGeometry x="7201" y="380" width="119" height="120" as="geometry" />
        </mxCell>
        <mxCell id="3EHcgW4SZO7mCVpg3CIv-114" style="edgeStyle=orthogonalEdgeStyle;rounded=0;orthogonalLoop=1;jettySize=auto;html=1;" edge="1" parent="1" source="3EHcgW4SZO7mCVpg3CIv-111" target="3EHcgW4SZO7mCVpg3CIv-113">
          <mxGeometry relative="1" as="geometry" />
        </mxCell>
        <mxCell id="3EHcgW4SZO7mCVpg3CIv-111" value="confirmation = true" style="whiteSpace=wrap;html=1;" vertex="1" parent="1">
          <mxGeometry x="7399.5" y="410" width="150.5" height="60" as="geometry" />
        </mxCell>
        <mxCell id="3EHcgW4SZO7mCVpg3CIv-113" value="End" style="strokeWidth=2;html=1;shape=mxgraph.flowchart.start_1;whiteSpace=wrap;" vertex="1" parent="1">
          <mxGeometry x="7630" y="410" width="100" height="60" as="geometry" />
        </mxCell>
        <mxCell id="3EHcgW4SZO7mCVpg3CIv-116" value="True" style="text;html=1;align=center;verticalAlign=middle;whiteSpace=wrap;rounded=0;" vertex="1" parent="1">
          <mxGeometry x="5060" y="555" width="60" height="30" as="geometry" />
        </mxCell>
        <mxCell id="3EHcgW4SZO7mCVpg3CIv-117" value="True" style="text;html=1;align=center;verticalAlign=middle;whiteSpace=wrap;rounded=0;" vertex="1" parent="1">
          <mxGeometry x="5420" y="455" width="60" height="30" as="geometry" />
        </mxCell>
        <mxCell id="3EHcgW4SZO7mCVpg3CIv-118" value="True" style="text;html=1;align=center;verticalAlign=middle;whiteSpace=wrap;rounded=0;" vertex="1" parent="1">
          <mxGeometry x="6180" y="340" width="60" height="30" as="geometry" />
        </mxCell>
        <mxCell id="3EHcgW4SZO7mCVpg3CIv-119" value="True" style="text;html=1;align=center;verticalAlign=middle;whiteSpace=wrap;rounded=0;" vertex="1" parent="1">
          <mxGeometry x="7310" y="410" width="60" height="30" as="geometry" />
        </mxCell>
        <mxCell id="3EHcgW4SZO7mCVpg3CIv-121" value="Out of Scope" style="whiteSpace=wrap;html=1;" vertex="1" parent="1">
          <mxGeometry x="7200.5" y="610" width="120" height="60" as="geometry" />
        </mxCell>
        <mxCell id="3EHcgW4SZO7mCVpg3CIv-123" value="False" style="text;html=1;align=center;verticalAlign=middle;whiteSpace=wrap;rounded=0;" vertex="1" parent="1">
          <mxGeometry x="7260" y="510" width="60" height="30" as="geometry" />
        </mxCell>
        <mxCell id="3EHcgW4SZO7mCVpg3CIv-124" value="False" style="text;html=1;align=center;verticalAlign=middle;whiteSpace=wrap;rounded=0;" vertex="1" parent="1">
          <mxGeometry x="5410" y="650" width="60" height="30" as="geometry" />
        </mxCell>
        <mxCell id="3EHcgW4SZO7mCVpg3CIv-125" value="False" style="text;html=1;align=center;verticalAlign=middle;whiteSpace=wrap;rounded=0;" vertex="1" parent="1">
          <mxGeometry x="6180" y="510" width="60" height="30" as="geometry" />
        </mxCell>
        <mxCell id="3EHcgW4SZO7mCVpg3CIv-126" value="False" style="text;html=1;align=center;verticalAlign=middle;whiteSpace=wrap;rounded=0;" vertex="1" parent="1">
          <mxGeometry x="4960" y="650" width="60" height="30" as="geometry" />
        </mxCell>
      </root>
    </mxGraphModel>
  </diagram>
</mxfile>
